<?xml version="1.0" encoding="utf-8"?><!-- Uploaded to: SVG Repo, www.svgrepo.com, Generator: SVG Repo Mixer Tools -->
<svg version="1.1" id="Uploaded to svgrepo.com" xmlns="http://www.w3.org/2000/svg" xmlns:xlink="http://www.w3.org/1999/xlink" 
	 width="800px" height="800px" viewBox="0 0 32 32" xml:space="preserve">
<style type="text/css">
	.stone_een{fill:#0B1719;}
	.st0{fill:#0B1719;}
</style>
<path class="stone_een" d="M28,4v24c0,1.657-1.343,3-3,3h-0.382C25.458,30.266,26,29.2,26,28V4c0-1.2-0.542-2.266-1.382-3H25
	C26.657,1,28,2.343,28,4z M25,28c0,1.657-1.343,3-3,3H7c-1.657,0-3-1.343-3-3V4c0-1.657,1.343-3,3-3h15c1.657,0,3,1.343,3,3V28z
	 M11.5,9.5c0,0.276,0.224,0.5,0.5,0.5h5c0.276,0,0.5-0.224,0.5-0.5S17.276,9,17,9h-5C11.724,9,11.5,9.224,11.5,9.5z M17.5,13.5
	c0-0.276-0.224-0.5-0.5-0.5h-5c-0.276,0-0.5,0.224-0.5,0.5S11.724,14,12,14h5C17.276,14,17.5,13.776,17.5,13.5z M18.5,11.5
	c0-0.276-0.224-0.5-0.5-0.5h-7c-0.276,0-0.5,0.224-0.5,0.5S10.724,12,11,12h7C18.276,12,18.5,11.776,18.5,11.5z"/>
</svg>